<svg width="81" height="84" viewBox="0 0 81 84" fill="none" xmlns="http://www.w3.org/2000/svg">
<path d="M7.06226 82.375L26.4373 63M34.264 63L53.639 82.375M30.3506 63L30.3506 82.375" stroke="white" stroke-width="1.5" stroke-linecap="round" stroke-linejoin="round"/>
<path d="M0.999878 41.2031C0.999878 33.2113 0.999878 29.2155 5.01157 26.7327C9.02327 24.25 15.48 24.25 28.3934 24.25H32.3068C45.2203 24.25 51.677 24.25 55.6887 26.7327C59.7004 29.2155 59.7004 33.2113 59.7004 41.2031V46.0469C59.7004 54.0387 59.7004 58.0345 55.6887 60.5173C51.677 63 45.2203 63 32.3068 63H28.3934C15.48 63 9.02327 63 5.01157 60.5173C0.999878 58.0345 0.999878 54.0387 0.999878 46.0469V41.2031Z" stroke="white" stroke-width="1.5"/>
<path d="M59.699 34.9044L60.1917 34.6116C68.4715 29.6919 72.6114 27.232 75.9386 28.4197C79.2658 29.6075 79.2658 33.5452 79.2658 41.4207V45.8279C79.2658 53.7034 79.2658 57.6411 75.9386 58.8289C72.6114 60.0166 68.4715 57.5567 60.1917 52.637L59.699 52.3442" stroke="white" stroke-width="1.5" stroke-linecap="round"/>
<ellipse cx="42.0898" cy="14.5625" rx="9.78341" ry="9.6875" stroke="white" stroke-width="1.5"/>
<ellipse cx="20.568" cy="12.625" rx="11.7401" ry="11.625" stroke="white" stroke-width="1.5"/>
</svg>
