<?xml version="1.0" encoding="UTF-8"?>
<svg width="126" height="90" viewBox="0 0 126 90" fill="none" xmlns="http://www.w3.org/2000/svg">
<g clip-path="url(#clip0_262_832)">
<path d="M20.8904 20.34C20.1229 23.6623 17.7446 25.8265 14.1434 25.8265C9.34458 25.8265 6.50241 21.7856 6.50241 16.0792C6.50241 10.3729 9.38675 6.33193 14.2277 6.33193C17.753 6.33193 20.1313 8.50457 20.8904 11.8185H27.3422C26.5747 5.35128 21.6072 0.921469 14.5651 0.921469C5.55783 0.938376 0 6.94061 0 16.0877C0 25.2347 5.34699 31.237 14.1771 31.237C21.4386 31.237 26.5747 26.8071 27.2916 20.34H20.8819H20.8904Z" fill="#FFFFFF"/>
<path d="M36.4675 9.10479H30.4374V30.9749H36.4675V9.10479Z" fill="#FFFFFF"/>
<path d="M33.4482 6.76308C35.4048 6.76308 36.9314 5.31747 36.9314 3.39845C36.9314 1.47942 35.4048 -0.00845337 33.4482 -0.00845337C31.4916 -0.00845337 29.9651 1.43716 29.9651 3.39845C29.9651 5.35974 31.4916 6.76308 33.4482 6.76308Z" fill="#FFFFFF"/>
<path d="M42.1513 24.7275C42.1513 28.8952 44.2345 30.9833 48.3923 30.9833H53.2754V25.9195H50.3067C48.7381 25.9195 48.1393 25.277 48.1393 23.7468V14.1686H53.1489V9.10478H48.1393V2.97574H42.1513V9.10478H38.5417V14.1686H42.1513V24.719V24.7275Z" fill="#FFFFFF"/>
<path d="M77.1767 9.10478H70.767L65.5887 24.6768L60.2839 9.10478H53.9164L62.3249 31.1017L61.7767 32.5473C61.1863 34.0352 60.6719 34.4241 59.1454 34.4241H55.8309V39.4879H61.6502C65.049 39.4879 66.1538 37.7042 67.5116 34.0859L77.1936 9.10478H77.1767Z" fill="#FFFFFF"/>
<path d="M14.3458 46.3355C9.42048 45.3972 7.08434 44.8899 7.08434 42.4637C7.08434 40.1642 9.04096 39.0145 11.7566 39.0145C14.8518 39.0145 16.7663 40.756 17.0614 43.2668H23.3024C23.2181 37.5604 18.7566 33.9084 11.7566 33.9084C4.75663 33.9084 0.683133 37.6534 0.683133 42.9286C0.683133 48.9731 5.09398 50.5878 10.1036 51.5262C15.0711 52.5069 17.4916 53.0141 17.4916 55.5249C17.4916 57.8666 15.3241 59.1431 12.3976 59.1431C8.74578 59.1431 6.45181 57.1396 6.24096 54.2483L0 54.1638C0.0421687 60.2083 4.75663 64.207 12.3133 64.207C19.2795 64.207 23.859 60.3774 23.9012 54.8063C23.9434 48.8041 19.4398 47.2739 14.3458 46.3355Z" fill="#FFFFFF"/>
<path d="M34.8064 56.7168V47.1386H39.816V42.0748H34.8064V35.9457H28.8184V42.0748H25.2088V47.1386H28.8184V57.689C28.8184 61.8568 30.9016 63.9449 35.0594 63.9449H39.9425V58.881H36.9739C35.4052 58.881 34.8064 58.2385 34.8064 56.7084V56.7168Z" fill="#FFFFFF"/>
<path d="M57.2654 53.0141C57.2654 57.055 55.528 59.2276 52.5509 59.2276C49.5738 59.2276 48.3088 57.3086 48.3088 53.3945V42.0748H42.3208V54.2061C42.3208 61.9498 46.4786 64.207 50.9822 64.207C54.0774 64.207 55.9919 63.015 57.3919 61.3158L57.9401 63.9534H63.2449V42.0832H57.2569V53.0225L57.2654 53.0141Z" fill="#FFFFFF"/>
<path d="M83.2405 44.7969C81.8405 43.0132 79.6731 41.8212 76.6622 41.8212C70.8429 41.8212 66.5586 46.2087 66.5586 52.9718C66.5586 59.7349 70.8429 64.207 76.7044 64.207C79.8502 64.207 81.967 62.8036 83.4092 60.9269L83.9996 63.9449H89.22V34.1535H83.2321V44.7885L83.2405 44.7969ZM78.02 59.3122C74.7478 59.3122 72.6731 56.7591 72.6731 53.0141C72.6731 49.269 74.7562 46.716 78.02 46.716C81.2839 46.716 83.3249 49.3113 83.3249 53.0563C83.3249 56.8014 81.2839 59.3122 78.02 59.3122Z" fill="#FFFFFF"/>
<path d="M96.4054 32.97C94.4488 32.97 92.9223 34.4156 92.9223 36.3769C92.9223 38.3382 94.4488 39.7415 96.4054 39.7415C98.3621 39.7415 99.8886 38.2959 99.8886 36.3769C99.8886 34.4579 98.3621 32.97 96.4054 32.97Z" fill="#FFFFFF"/>
<path d="M99.4168 42.0748H93.3867V63.9449H99.4168V42.0748Z" fill="#FFFFFF"/>
<path d="M114.193 64.207C121.159 64.207 125.696 59.7772 125.696 53.0141C125.696 46.251 121.151 41.8212 114.193 41.8212C107.235 41.8212 102.689 46.2933 102.689 53.0141C102.689 59.7349 107.235 64.207 114.193 64.207ZM114.193 46.716C117.549 46.716 119.624 49.3113 119.624 53.0141C119.624 56.7169 117.541 59.3122 114.193 59.3122C110.845 59.3122 108.804 56.7169 108.804 53.0141C108.804 49.3113 110.845 46.716 114.193 46.716Z" fill="#FFFFFF"/>
<path d="M48.0308 69.0848H42.1271V89.3656H62.3597V83.4479H48.0308V69.0848Z" fill="#FFFFFF"/>
<path d="M120.097 83.4479H105.768V89.3656H126V69.0848H120.097V83.4479Z" fill="#FFFFFF"/>
<path d="M105.768 6.08678V12.0045H120.097V26.3676H126V6.08678H105.768Z" fill="#FFFFFF"/>
</g>
<defs>
<clipPath id="clip0_262_832">
<rect width="126" height="89.3656" fill="white"/>
</clipPath>
</defs>
</svg> 