<svg width="90" height="71" viewBox="0 0 90 71" fill="none" xmlns="http://www.w3.org/2000/svg">
<path d="M4.91154 24.46L4.96405 24.4261C3.36336 23.5302 1.91362 22.6501 1.63193 22.2579C0.952588 21.312 0.640458 18.4745 1.63193 18.4745H9.78406L14.9263 8.50773C17.1583 4.18181 21.7207 1.44922 26.7114 1.44922H63.1292C68.1199 1.44922 72.6823 4.1818 74.9142 8.50772L80.0565 18.4745H88.2086C89.2001 18.4745 88.888 21.312 88.2086 22.2579C87.927 22.6501 86.4772 23.5302 84.8765 24.4261L84.929 24.46C87.3727 26.0388 88.8406 28.6967 88.8406 31.543V65.294C88.8406 67.6447 86.8742 69.5503 84.4485 69.5503H80.0565C77.6309 69.5503 75.6645 67.6447 75.6645 65.294V61.0377H14.1761V65.294C14.1761 67.6447 12.2097 69.5503 9.78406 69.5503H5.39203C2.96638 69.5503 1 67.6447 1 65.294V31.543C1 28.6967 2.46782 26.0388 4.91154 24.46Z" stroke="white" stroke-width="1.5"/>
<path fill-rule="evenodd" clip-rule="evenodd" d="M8.89648 38.4998V33.2375C8.89648 31.5584 10.61 30.5122 11.9744 31.3582L18.8079 35.5957L25.6414 39.8331C27.5249 41.0011 26.6132 44.0731 24.4402 43.8806L12.6499 42.8361C10.5283 42.6482 8.89648 40.7629 8.89648 38.4998Z" stroke="white" stroke-width="1.5"/>
<path fill-rule="evenodd" clip-rule="evenodd" d="M81.9336 38.4998V33.2375C81.9336 31.5584 80.2201 30.5122 78.8557 31.3582L72.0222 35.5957L65.1887 39.8331C63.3052 41.0011 64.2169 44.0731 66.3899 43.8806L78.1802 42.8361C80.3017 42.6482 81.9336 40.7629 81.9336 38.4998Z" stroke="white" stroke-width="1.5"/>
</svg>
