<svg width="91" height="69" viewBox="0 0 91 69" fill="none" xmlns="http://www.w3.org/2000/svg">
<path d="M73.4551 26.2831C72.9537 21.2894 71.0984 16.526 68.0881 12.5039C72.0675 13.0909 75.7647 14.8998 78.6655 17.6789C81.5662 20.458 83.5265 24.0694 84.2737 28.0107L89.6407 56.2012L89.7675 56.0327C90.3279 58.5416 89.8658 61.1698 88.4828 63.339C87.0999 65.5083 84.9093 67.0408 82.3931 67.5996C79.8769 68.1584 77.2411 67.6976 75.0656 66.3187C72.8901 64.9397 71.3531 62.7555 70.7927 60.2465C72.5302 58.2239 73.8351 55.8687 74.6272 53.3254C75.4193 50.782 75.6819 48.1042 75.3991 45.456M73.4551 26.2831L75.3991 45.456M73.4551 26.2831C72.7815 19.3465 69.536 12.9102 64.3538 8.234C59.1716 3.55777 52.4258 0.97819 45.4366 1.00014C38.4474 0.97819 31.7016 3.55777 26.5194 8.234C21.3373 12.9102 18.0918 19.3465 17.4181 26.2831M75.3991 45.456C75.665 48.195 75.3519 50.9592 74.4799 53.5701C73.6079 56.181 72.1964 58.5805 70.3366 60.6137C68.4768 62.6468 66.21 64.2684 63.6826 65.3737C61.1552 66.4791 58.4234 67.0436 55.6636 67.0308H35.2096C32.4499 67.0436 29.7181 66.4791 27.1907 65.3737C24.6633 64.2684 22.3965 62.6468 20.5366 60.6137C18.6768 58.5805 17.2653 56.181 16.3933 53.5701C15.5213 50.9592 15.2082 48.195 15.4742 45.456M15.4742 45.456L17.4181 26.2831M15.4742 45.456C15.1846 48.1401 15.4557 50.855 16.2703 53.4295C17.0849 56.0041 18.4254 58.3825 20.2073 60.4151C19.6469 62.924 18.1099 65.1082 15.9344 66.4872C13.7589 67.8662 11.1231 68.327 8.60689 67.7682C6.09067 67.2094 3.90013 65.6768 2.51716 63.5076C1.1342 61.3384 0.672085 58.7102 1.23249 56.2012L6.59953 28.0107C7.34672 24.0694 9.30698 20.458 12.2078 17.6789C15.1085 14.8998 18.8057 13.0909 22.7852 12.5039C19.7749 16.526 17.9195 21.2894 17.4181 26.2831M45.4366 51.861L39.3934 45.0767C39.3934 43.6798 39.95 42.34 40.9406 41.3522C41.9313 40.3644 43.2749 39.8095 44.6759 39.8095H46.1973C47.5983 39.8095 48.9419 40.3644 49.9326 41.3522C50.9233 42.34 51.4798 43.6798 51.4798 45.0767L45.4366 51.861ZM45.4366 51.861V67.0308M32.1247 26.578V30.1177M58.7486 26.578V30.1177" stroke="white" stroke-width="1.5" stroke-linecap="round" stroke-linejoin="round"/>
</svg>
